<?xml version="1.0" encoding="utf-8"?>
<!-- Generator: Adobe Illustrator 16.0.0, SVG Export Plug-In . SVG Version: 6.00 Build 0)  -->
<!DOCTYPE svg PUBLIC "-//W3C//DTD SVG 1.1//EN" "http://www.w3.org/Graphics/SVG/1.1/DTD/svg11.dtd">
<svg version="1.1" id="Layer_1" xmlns="http://www.w3.org/2000/svg" xmlns:xlink="http://www.w3.org/1999/xlink" x="0px" y="0px"
	 width="670px" height="990px" viewBox="0 0 670 990" enable-background="new 0 0 670 990" xml:space="preserve">
<path fill="#A04041" d="M577.101,401.854l-113,126c0,0-13.947,2.464-22-1.512s-17.134-68.488-17.134-68.488V95.756
	c0-20.35-16.425-37-36.5-37s-36.5,16.65-36.5,37v361.109l-28.732,0.128V47.878c0-20.35-16.425-37-36.5-37s-36.5,16.65-36.5,37
	v409.429l-27.939-0.88V88.585c0-20.35-16.65-37-37-37s-37,16.65-37,37v369.158l-25.792,0.11V147.902c0-20.35-16.425-37-36.5-37
	s-36.5,16.65-36.5,37v336.292v15.146v27v161.292c0,0,5.083,30.591,36.5,70.415v217.073h302.463V821.463
	c54.634-46.609,104.854-121.951,104.854-121.951l157.176-292.683C625.048,376.365,577.101,401.854,577.101,401.854z"/>
</svg>
