<?xml version="1.0" encoding="utf-8"?>
<!-- Generator: Adobe Illustrator 16.0.0, SVG Export Plug-In . SVG Version: 6.00 Build 0)  -->
<!DOCTYPE svg PUBLIC "-//W3C//DTD SVG 1.1//EN" "http://www.w3.org/Graphics/SVG/1.1/DTD/svg11.dtd">
<svg version="1.1" id="Layer_1" xmlns="http://www.w3.org/2000/svg" xmlns:xlink="http://www.w3.org/1999/xlink" x="0px" y="0px"
	 width="670px" height="990px" viewBox="0 0 670 990" enable-background="new 0 0 670 990" xml:space="preserve">
<path fill="#A09F9F" d="M577.101,401.854l-113,126l-27-1.512l-12.134-88.488V95.756c0-20.35-16.425-37-36.5-37s-36.5,16.65-36.5,37
	c0,0,0.452,347.023,1.282,350.109l-30.014,3.128V47.878c0-20.35-16.425-37-36.5-37s-36.5,16.65-36.5,37v402.429l-27.939,4.12V88.585
	c0-20.35-16.65-37-37-37s-37,16.65-37,37v367.158l-25.792,2.11V147.902c0-20.35-16.425-37-36.5-37s-36.5,16.65-36.5,37v336.292
	v15.146v27v161.292c0,0,5.083,30.591,36.5,70.415v217.073h302.463V821.463c54.634-46.609,104.854-121.951,104.854-121.951
	l157.176-292.683C629.101,361.854,577.101,401.854,577.101,401.854z"/>
</svg>
