<?xml version="1.0" encoding="utf-8"?>
<!-- Generator: Adobe Illustrator 16.0.0, SVG Export Plug-In . SVG Version: 6.00 Build 0)  -->
<!DOCTYPE svg PUBLIC "-//W3C//DTD SVG 1.1//EN" "http://www.w3.org/Graphics/SVG/1.1/DTD/svg11.dtd">
<svg version="1.1" xmlns="http://www.w3.org/2000/svg" xmlns:xlink="http://www.w3.org/1999/xlink" x="0px" y="0px" width="44px"
	 height="74px" viewBox="0 0 44 74" enable-background="new 0 0 44 74" xml:space="preserve">
<g id="Layer_1">
</g>
<g id="Layer_2">
	<circle fill="#45A040" cx="31.416" cy="7.335" r="5.001"/>
	<g>
		<path fill="#45A040" d="M7.533,34.437c-0.11,0.539,0.249,0.979,0.799,0.979h1.332c0.55,0,1.12-0.434,1.266-0.964l2.968-10.737
			c0.146-0.53,0.716-0.964,1.266-0.964h0.5c0.55,0,0.929,0.444,0.842,0.987l-2.516,15.69c-0.087,0.543-0.338,1.4-0.558,1.904
			L2.398,66.666c-0.22,0.505-0.061,1.214,0.353,1.575l2.495,2.184c0.414,0.361,0.955,0.256,1.202-0.235L18.44,46.34
			c0.247-0.491,0.898-0.868,1.448-0.838l0.446,0.025c0.549,0.03,1.223,0.445,1.498,0.923L24,50.216
			c0.274,0.478,0.584,1.309,0.688,1.849l3.454,17.871c0.104,0.54,0.603,0.801,1.106,0.581l3.504-1.533
			c0.504-0.22,0.845-0.845,0.758-1.388l-2.936-18.359c-0.087-0.543-0.354-1.393-0.595-1.888l-3.409-7.032
			c-0.24-0.495-0.368-1.345-0.286-1.889l1.396-9.188c0.083-0.544,0.357-0.589,0.61-0.101l1.666,3.224
			c0.252,0.488,0.881,1.046,1.396,1.238l9.711,3.632c0.515,0.192,1.191-0.021,1.503-0.474l0.701-1.019
			c0.312-0.453,0.173-1.042-0.308-1.31l-8.752-4.862c-0.48-0.267-0.995-0.919-1.144-1.449l-3.464-12.404
			c-0.148-0.53-0.619-1.246-1.047-1.592l-2.362-1.911c-0.428-0.346-1.182-0.432-1.677-0.19l-12.868,6.278
			c-0.495,0.241-0.989,0.879-1.1,1.418L7.533,34.437z"/>
	</g>
</g>
</svg>
